<?xml version="1.0" standalone="no"?>
<!DOCTYPE svg PUBLIC "-//W3C//DTD SVG 20010904//EN"
 "http://www.w3.org/TR/2001/REC-SVG-20010904/DTD/svg10.dtd">
<svg version="1.0" xmlns="http://www.w3.org/2000/svg"
 width="700.000000pt" height="700.000000pt" viewBox="0 0 700.000000 700.000000"
 preserveAspectRatio="xMidYMid meet">
<metadata>
Created by potrace 1.14, written by Peter Selinger 2001-2017
</metadata>
<g transform="translate(0.000000,700.000000) scale(0.100000,-0.100000)"
fill="#000000" stroke="none">
<path d="M3168 6635 c-2 -1 -46 -5 -98 -9 -52 -3 -122 -10 -155 -16 -33 -6
-78 -13 -100 -15 -22 -3 -47 -8 -55 -10 -8 -2 -31 -7 -50 -10 -19 -3 -60 -13
-90 -21 -30 -8 -64 -17 -74 -19 -46 -11 -202 -58 -211 -64 -5 -4 -30 -14 -55
-21 -25 -7 -49 -17 -55 -20 -5 -4 -26 -13 -45 -20 -71 -27 -245 -113 -332
-163 -158 -92 -259 -158 -253 -167 2 -4 -2 -7 -8 -7 -14 0 -166 -114 -237
-178 -60 -54 -234 -229 -289 -290 -57 -63 -185 -233 -231 -305 -19 -30 -37
-57 -40 -60 -3 -3 -11 -16 -18 -29 -8 -13 -23 -40 -34 -60 -12 -20 -33 -58
-47 -86 -15 -27 -31 -57 -36 -65 -5 -8 -10 -17 -10 -20 -1 -3 -20 -43 -42 -90
-56 -118 -153 -382 -168 -459 -2 -9 -11 -45 -20 -81 -9 -36 -19 -75 -21 -87
-10 -57 -12 -70 -18 -93 -3 -14 -8 -43 -11 -65 -3 -21 -19 -105 -34 -185 -16
-80 -32 -169 -36 -199 -4 -30 -9 -63 -11 -75 -10 -49 -18 -213 -18 -366 0
-150 10 -355 18 -369 2 -3 7 -31 11 -61 13 -99 13 -101 50 -265 15 -66 30
-124 33 -130 4 -5 7 -16 8 -22 10 -63 123 -355 135 -347 5 3 6 -1 3 -9 -7 -20
126 -278 139 -270 6 3 7 1 3 -5 -7 -13 23 -72 36 -72 4 0 7 -3 6 -7 -3 -8 40
-83 52 -93 3 -3 22 -31 43 -62 21 -31 43 -63 50 -70 7 -7 24 -29 37 -48 13
-19 27 -37 30 -40 3 -3 30 -34 60 -70 92 -110 142 -160 153 -153 6 3 7 2 4 -4
-6 -10 103 -120 177 -178 20 -16 45 -37 54 -46 66 -61 260 -195 396 -273 139
-80 284 -148 297 -140 8 4 9 3 5 -4 -4 -8 0 -12 11 -12 11 0 23 -4 29 -9 5 -5
29 -17 54 -26 116 -42 243 -85 263 -89 12 -3 38 -10 57 -16 19 -6 46 -13 59
-16 12 -3 51 -11 85 -19 34 -8 79 -17 101 -20 22 -4 51 -8 65 -11 104 -18 137
-22 275 -30 196 -11 312 -8 550 12 39 3 71 10 73 14 2 5 9 7 15 4 10 -4 171
23 232 39 11 3 43 10 70 17 54 13 227 66 260 80 11 5 29 11 40 13 11 3 67 25
125 49 58 24 146 57 195 72 148 46 346 127 338 139 -3 6 -1 7 5 3 13 -8 179
74 317 157 55 33 102 63 105 67 3 3 28 20 55 38 28 17 64 43 80 56 17 14 41
33 54 43 13 10 31 25 40 33 9 8 35 28 56 45 50 36 355 342 355 355 0 5 8 17
18 27 29 28 172 220 172 230 0 6 11 23 24 38 13 15 30 40 38 54 7 14 31 55 52
91 40 66 155 301 174 355 6 17 24 68 42 115 17 47 45 132 61 190 30 105 35
122 44 170 3 14 11 50 18 82 10 37 11 62 4 73 -7 13 -6 16 2 11 11 -7 13 2 15
72 1 17 3 32 6 32 3 0 7 15 8 33 1 17 5 57 8 87 10 116 10 130 0 130 -7 0 -6
3 1 8 15 9 16 267 1 296 -8 14 -7 17 3 11 6 -5 10 -4 7 1 -4 5 -9 43 -13 84
-13 153 -18 192 -50 345 -9 44 -17 86 -18 93 0 6 -5 12 -10 12 -6 0 -8 2 -5 6
3 3 2 22 -3 42 -5 20 -11 45 -14 55 -6 25 -20 70 -51 157 -14 41 -30 90 -35
108 -6 17 -14 32 -19 32 -6 0 -9 3 -8 8 13 50 -311 636 -342 617 -6 -3 -8 0
-5 7 5 12 -27 56 -138 192 -44 55 -262 275 -320 325 -27 23 -53 38 -59 35 -6
-4 -8 -3 -5 3 4 5 -4 19 -16 29 -34 30 -170 130 -194 142 -12 7 -27 18 -35 25
-23 23 -104 67 -111 60 -4 -3 -7 -2 -7 4 0 20 -239 146 -412 217 -47 20 -130
58 -185 85 -136 69 -342 152 -379 154 -18 1 -30 5 -28 9 5 7 -57 30 -64 23 -3
-3 -10 -1 -16 4 -12 10 -243 69 -303 77 -21 3 -47 7 -58 8 -11 2 -29 6 -40 9
-11 3 -49 9 -85 13 -36 3 -83 8 -105 10 -48 5 -422 13 -427 9z m-328 -317
c-65 -19 -207 -71 -245 -88 -53 -24 -113 -46 -260 -95 -182 -61 -339 -128
-327 -140 4 -4 2 -5 -5 -2 -11 7 -113 -38 -124 -55 -3 -6 -8 -9 -10 -8 -9 3
-46 -15 -76 -37 -18 -13 -33 -22 -33 -19 0 3 18 19 40 35 21 15 36 32 32 36
-4 5 -1 5 6 1 8 -5 27 3 47 18 18 14 38 26 43 26 6 0 12 3 14 8 2 4 28 20 58
35 30 16 74 39 98 52 23 13 42 21 42 18 0 -3 6 0 14 6 30 25 333 141 436 167
8 2 42 10 75 19 33 9 74 18 90 21 17 3 48 10 70 14 73 14 81 8 15 -12z m565
13 c3 -5 2 -12 -3 -15 -5 -3 -9 1 -9 9 0 17 3 19 12 6z m812 -185 c37 -8 82
-17 98 -19 46 -8 179 -45 263 -73 88 -30 139 -54 200 -96 24 -16 50 -27 58
-24 8 3 12 2 9 -3 -5 -9 54 -61 68 -61 4 0 15 -7 25 -15 47 -41 90 -75 96 -75
8 0 82 -68 203 -185 57 -55 103 -98 103 -96 0 2 12 -12 28 -32 108 -141 171
-215 177 -209 5 4 5 2 2 -4 -4 -6 2 -22 13 -34 24 -28 25 -31 5 -24 -8 3 -17
14 -20 23 -6 21 -250 270 -324 332 -29 24 -58 43 -65 41 -6 -2 -8 0 -4 3 14
14 -236 195 -392 284 -68 39 -323 163 -370 180 -19 7 -44 17 -55 22 -51 23
-108 38 -119 32 -6 -3 -7 -2 -3 2 4 5 -16 17 -45 26 -66 21 -41 24 49 5z
m-2410 -61 c0 -8 -4 -12 -9 -9 -5 3 -6 10 -3 15 9 13 12 11 12 -6z m158 -4 c3
-5 2 -12 -3 -15 -5 -3 -9 1 -9 9 0 17 3 19 12 6z m1525 3 c0 -8 -19 -13 -24
-6 -3 5 1 9 9 9 8 0 15 -2 15 -3z m30 -77 c56 -5 141 -17 195 -27 28 -5 64
-12 81 -15 17 -2 84 -19 150 -36 65 -17 127 -32 137 -32 9 -1 17 -6 17 -11 0
-5 3 -6 7 -3 3 4 11 3 17 -2 6 -5 29 -14 51 -21 118 -37 389 -164 500 -234 64
-41 153 -102 228 -158 43 -32 83 -55 89 -52 6 4 8 3 5 -3 -4 -6 26 -39 66 -74
147 -130 273 -268 410 -449 36 -47 97 -142 97 -150 0 -6 4 -10 9 -10 5 0 11
-8 14 -17 7 -21 39 -76 49 -83 4 -3 14 -22 23 -43 8 -20 20 -37 26 -37 5 0 8
-3 6 -7 -7 -12 78 -184 87 -176 4 4 4 0 1 -9 -4 -9 1 -31 10 -48 9 -18 18 -39
20 -48 3 -16 27 -82 45 -127 5 -11 12 -33 16 -50 4 -16 8 -32 9 -35 9 -29 28
-99 31 -112 2 -10 6 -28 9 -40 18 -76 29 -137 39 -213 4 -27 9 -59 11 -70 24
-119 23 -503 -1 -640 -11 -67 -74 -272 -104 -340 -5 -11 -21 -49 -36 -85 -16
-36 -41 -89 -56 -119 -15 -29 -28 -57 -28 -62 0 -6 -5 -15 -11 -22 -5 -7 -33
-52 -62 -101 -60 -102 -67 -113 -124 -195 -48 -68 -54 -76 -136 -173 -33 -39
-55 -73 -51 -80 4 -6 3 -8 -3 -5 -6 4 -57 -39 -114 -96 -180 -177 -460 -384
-622 -460 -22 -11 -35 -23 -31 -29 4 -6 3 -8 -3 -5 -6 4 -55 -14 -109 -39
-135 -61 -136 -62 -162 -69 -12 -4 -20 -9 -18 -13 2 -4 -8 -8 -22 -8 -15 -1
-40 -7 -57 -15 -16 -7 -32 -13 -35 -14 -3 -1 -25 -7 -50 -14 -25 -7 -63 -19
-85 -26 -22 -8 -51 -16 -65 -19 -14 -2 -50 -10 -80 -17 -30 -7 -59 -12 -64
-11 -4 2 -14 -2 -20 -8 -7 -5 -15 -8 -18 -5 -3 3 -27 1 -54 -4 -50 -10 -135
-20 -189 -23 -16 -1 -33 -7 -37 -13 -5 -6 -8 -5 -8 3 0 7 -5 10 -10 7 -6 -3
-88 -6 -183 -5 -215 2 -270 5 -285 14 -7 4 -12 2 -12 -3 0 -8 -6 -8 -17 -2
-10 5 -58 15 -108 22 -49 7 -94 14 -100 16 -5 1 -32 7 -60 13 -42 8 -84 18
-140 34 -185 51 -294 105 -474 234 -58 42 -111 81 -117 87 -7 5 -34 28 -60 50
-53 44 -284 274 -284 282 0 3 -8 13 -18 22 -9 9 -30 34 -46 56 -16 22 -34 45
-40 50 -23 22 -165 234 -212 318 -47 84 -121 232 -130 260 -4 12 -17 45 -29
72 -59 130 -107 298 -161 560 -2 11 -6 40 -10 65 -3 25 -7 56 -9 70 -16 116
-23 414 -11 522 3 29 8 85 11 123 4 39 8 77 10 85 3 8 7 33 11 55 9 60 40 202
59 270 10 33 18 67 19 75 0 8 4 17 7 20 4 3 14 28 22 55 21 67 59 167 91 238
15 32 24 63 20 68 -3 5 0 8 7 7 7 -2 15 6 17 17 2 11 9 27 16 35 7 8 24 38 37
65 31 61 135 230 163 266 12 14 28 36 36 49 8 13 25 35 37 50 12 15 19 30 15
34 -4 4 -2 6 4 4 9 -3 64 52 64 65 0 2 25 30 55 61 32 32 53 62 49 68 -4 6 -3
8 3 5 6 -4 44 26 86 66 186 177 365 307 600 433 54 29 113 58 130 63 43 14
265 60 305 63 18 1 32 5 32 8 0 3 18 5 41 5 22 -1 62 2 87 5 47 6 415 3 482
-3z m-2273 -412 c0 -8 -4 -12 -9 -9 -5 3 -6 10 -3 15 9 13 12 11 12 -6z m-67
-391 c0 -8 -19 -13 -24 -6 -3 5 1 9 9 9 8 0 15 -2 15 -3z m44 -106 c-4 -7 -28
-44 -52 -83 -74 -115 -187 -343 -233 -470 -10 -27 -27 -74 -38 -104 -11 -30
-18 -58 -15 -62 3 -5 1 -9 -4 -9 -5 0 -12 -10 -15 -22 -2 -13 -16 -66 -30
-118 -15 -52 -28 -106 -31 -120 -3 -14 -12 -61 -21 -105 -9 -44 -17 -103 -19
-132 -2 -28 -6 -56 -9 -60 -10 -15 -20 -205 -21 -358 0 -138 8 -278 20 -365
23 -164 39 -243 78 -405 17 -70 67 -229 85 -270 5 -11 24 -57 41 -103 18 -45
36 -85 41 -88 5 -3 9 -13 9 -22 0 -10 -6 -5 -16 13 -8 16 -21 37 -29 45 -7 8
-16 25 -19 37 -4 13 -13 29 -19 35 -15 16 -67 121 -67 135 0 6 -7 16 -15 23
-9 7 -13 15 -11 18 3 3 -1 17 -8 31 -8 14 -24 51 -36 81 -11 30 -25 64 -30 75
-44 106 -115 379 -134 520 -3 22 -8 54 -11 70 -25 160 -26 557 -1 680 21 107
110 362 152 438 8 15 12 32 9 37 -3 6 -2 10 4 10 5 0 25 33 45 73 47 96 98
188 114 206 7 7 11 20 8 28 -3 8 -2 12 3 9 5 -3 31 27 57 67 27 39 51 74 54
77 3 3 21 25 40 50 19 25 45 56 58 69 13 14 31 38 40 53 9 15 20 28 25 28 4 0
5 -6 1 -12z m21 -127 c3 -5 2 -12 -3 -15 -5 -3 -9 1 -9 9 0 17 3 19 12 6z m80
0 c3 -5 2 -12 -3 -15 -5 -3 -9 1 -9 9 0 17 3 19 12 6z m4758 -106 c4 3 5 2 2
-1 -8 -11 68 -144 78 -137 6 3 7 1 4 -4 -4 -6 6 -37 22 -70 74 -152 163 -386
178 -468 3 -16 8 -32 11 -35 4 -3 7 -14 6 -25 0 -11 5 -35 12 -53 15 -36 14
-33 14 -68 0 -14 4 -22 10 -19 5 3 7 0 5 -7 -3 -8 1 -59 9 -114 42 -274 40
-602 -5 -847 -5 -32 -12 -70 -14 -85 -19 -119 -106 -408 -156 -520 -16 -34
-29 -65 -29 -68 0 -26 -171 -335 -228 -411 -13 -18 -22 -33 -19 -33 4 0 -4
-10 -16 -23 -12 -13 -29 -34 -37 -46 -16 -25 -56 -76 -117 -148 -20 -24 -42
-51 -50 -60 -8 -10 -7 -4 3 12 98 163 138 235 180 320 27 55 49 102 49 105 1
3 8 21 17 40 33 69 88 222 131 365 23 75 74 309 87 400 6 44 19 109 27 145 15
67 16 71 29 155 4 28 9 57 10 65 28 142 32 441 11 753 -1 9 -4 17 -7 17 -3 0
-5 17 -5 38 0 20 -4 57 -9 82 -4 25 -9 54 -11 65 -4 25 -16 86 -19 100 -2 6
-6 27 -11 48 -4 20 -11 37 -16 37 -5 0 -6 6 -3 13 5 14 -48 202 -71 254 -8 17
-15 35 -15 40 0 14 -70 177 -81 188 -5 5 -9 14 -9 20 0 5 7 2 14 -7 7 -10 16
-16 19 -13z m122 -704 c3 -5 2 -12 -3 -15 -5 -3 -9 1 -9 9 0 17 3 19 12 6z
m-5358 -326 c0 -8 -4 -12 -9 -9 -5 3 -6 10 -3 15 9 13 12 11 12 -6z m0 -470
c0 -8 -4 -12 -9 -9 -5 3 -6 10 -3 15 9 13 12 11 12 -6z m5760 -160 c0 -8 -4
-12 -9 -9 -5 3 -6 10 -3 15 9 13 12 11 12 -6z m-2 -84 c3 -5 2 -12 -3 -15 -5
-3 -9 1 -9 9 0 17 3 19 12 6z m-5761 -159 c3 -5 -1 -9 -9 -9 -8 0 -12 4 -9 9
3 4 7 8 9 8 2 0 6 -4 9 -8z m-399 -391 c3 -5 2 -12 -3 -15 -5 -3 -9 1 -9 9 0
17 3 19 12 6z m5920 0 c3 -5 2 -12 -3 -15 -5 -3 -9 1 -9 9 0 17 3 19 12 6z
m-5601 -9 c3 -5 -1 -9 -9 -9 -8 0 -12 4 -9 9 3 4 7 8 9 8 2 0 6 -4 9 -8z
m5443 -557 c0 -8 -4 -12 -9 -9 -5 3 -6 10 -3 15 9 13 12 11 12 -6z m-5443 -83
c3 -5 -1 -9 -9 -9 -8 0 -12 4 -9 9 3 4 7 8 9 8 2 0 6 -4 9 -8z m4726 -122 c0
-5 -5 -10 -11 -10 -5 0 -7 5 -4 10 3 6 8 10 11 10 2 0 4 -4 4 -10z m475 -29
c3 -5 2 -12 -3 -15 -5 -3 -9 1 -9 9 0 17 3 19 12 6z m-4939 -40 c-3 -4 19 -34
49 -66 30 -31 55 -59 55 -61 0 -12 223 -223 290 -274 25 -19 47 -37 50 -40 6
-7 116 -90 150 -113 82 -56 132 -87 140 -87 6 0 10 -3 10 -7 0 -5 35 -26 78
-48 42 -22 79 -42 82 -45 11 -11 50 -30 62 -30 6 0 19 -6 27 -14 9 -7 71 -37
139 -65 67 -28 161 -71 210 -95 104 -52 169 -81 275 -125 16 -6 33 -9 38 -6 5
4 9 2 9 -4 0 -9 84 -38 86 -30 0 2 8 -2 17 -9 9 -8 20 -11 24 -9 5 3 17 -1 27
-8 16 -12 11 -13 -33 -8 -29 3 -59 6 -69 7 -9 0 -20 5 -23 9 -3 5 -26 10 -51
11 -25 2 -49 5 -54 8 -5 2 -27 10 -49 16 -22 6 -83 25 -135 43 -52 17 -105 32
-117 33 -11 0 -19 4 -16 8 2 5 -3 8 -12 8 -8 0 -23 4 -33 9 -9 5 -46 22 -82
38 -97 41 -308 150 -320 164 -3 3 -19 14 -37 23 -100 51 -325 229 -471 372
-56 55 -105 98 -109 95 -3 -3 -3 -1 1 6 3 6 1 15 -7 20 -7 4 -31 31 -52 58
-22 28 -45 55 -51 60 -6 6 -18 23 -28 38 -9 16 -22 25 -28 21 -6 -4 -8 -3 -5
3 4 5 -7 28 -23 50 -16 22 -27 43 -23 47 9 9 15 7 9 -3z m4379 -360 c3 -5 2
-12 -3 -15 -5 -3 -9 1 -9 9 0 17 3 19 12 6z m162 -166 c0 -8 -4 -12 -9 -9 -5
3 -6 10 -3 15 9 13 12 11 12 -6z m-4237 -81 c0 -8 -19 -13 -24 -6 -3 5 1 9 9
9 8 0 15 -2 15 -3z m3524 -2 c3 -5 -1 -9 -9 -9 -8 0 -12 4 -9 9 3 4 7 8 9 8 2
0 6 -4 9 -8z m-33 -86 c-6 -8 -25 -19 -41 -26 -17 -7 -30 -16 -30 -21 0 -5 -7
-9 -15 -9 -8 0 -15 -4 -15 -10 0 -5 -4 -10 -10 -10 -5 0 -42 -19 -82 -43 -80
-46 -167 -90 -213 -107 -30 -11 -207 -50 -228 -50 -13 0 0 13 16 16 91 14 561
218 612 265 14 14 19 11 6 -5z m433 -74 c3 -5 -1 -9 -9 -9 -8 0 -12 4 -9 9 3
4 7 8 9 8 2 0 6 -4 9 -8z m-1284 -78 c0 -8 -19 -13 -24 -6 -3 5 1 9 9 9 8 0
15 -2 15 -3z m193 -131 c-7 -2 -19 -2 -25 0 -7 3 -2 5 12 5 14 0 19 -2 13 -5z
m-1958 -182 c3 -5 2 -12 -3 -15 -5 -3 -9 1 -9 9 0 17 3 19 12 6z m480 -160 c3
-5 2 -12 -3 -15 -5 -3 -9 1 -9 9 0 17 3 19 12 6z m640 -10 c3 -5 2 -12 -3 -15
-5 -3 -9 1 -9 9 0 17 3 19 12 6z"/>
</g>
</svg>
